<?xml version="1.0" encoding="UTF-8"?>
<svg width="20px" height="20px" viewBox="0 0 20 20" version="1.1" xmlns="http://www.w3.org/2000/svg" xmlns:xlink="http://www.w3.org/1999/xlink">
    <title>评论</title>
    <g id="页面-1" stroke="none" stroke-width="1" fill="#2F96A6" fill-rule="evenodd">
        <path d="M17,2 C17.8284271,2 18.5,2.6943407 18.5,3.55085336 L18.5,13.3729246 C18.5,14.2294373 17.8284271,14.923778 17,14.923778 L9.49700001,14.923778 L5.80700001,17.8910774 C5.656214,18.0123503 5.45177004,18.0341921 5.28018524,17.9473597 C5.10860044,17.8605273 4.99986739,17.6801988 5,17.482686 L5,14.923778 L3,14.923778 C2.17157287,14.923778 1.5,14.2294373 1.5,13.3729246 L1.5,3.55085336 C1.5,2.6943407 2.17157287,2 3,2 L17,2 Z M17,3.55085336 L3,3.55085336 L3,13.3729246 L6.5,13.3729246 L6.5,15.3688729 L8.98250001,13.3729246 L17,13.3729246 L17,3.55085336 Z M13.5257159,7.45548443 L13.5257159,9.00633779 L6.51549503,9.00633779 L6.51549503,7.45548443 L13.5257159,7.45548443 Z" id="形状结合" fill="#2F96A6" fill-rule="nonzero"></path>
    </g>
</svg>