<?xml version="1.0" encoding="UTF-8"?>
<svg width="20px" height="20px" viewBox="0 0 20 20" version="1.1" xmlns="http://www.w3.org/2000/svg" xmlns:xlink="http://www.w3.org/1999/xlink">
    <title>点赞</title>
    <g id="页面-1" stroke="none" stroke-width="1" fill="none" fill-rule="evenodd">
        <g id="good" transform="translate(0.700000, 0.600000)" fill="#2F96A6" fill-rule="nonzero">
            <path d="M11.1334704,0.8984375 C11.3008137,0.8984375 11.5951253,0.934031242 11.8203747,1.0068125 C12.9296215,1.36646876 13.5681821,2.54478125 13.3094641,3.72415625 L13.2829017,3.83465624 L12.2942483,7.54278126 L16.210612,7.54278126 C16.6860793,7.54278126 17.1562342,7.71915626 17.4749833,8.07190626 C17.8309198,8.46609375 17.9695757,8.98778127 17.8638572,9.4940625 L17.8372948,9.6024375 L15.772332,16.9549375 C15.6258349,17.4786304 15.1671049,17.8545352 14.6248353,17.89525 L14.5292106,17.8984375 L4.08592829,17.8984375 L4.08592829,7.91678124 C6.20135966,7.45884375 9.29535074,1.83131249 9.29535071,1.83131249 C9.73522444,1.23471875 10.2685979,0.8984375 11.1334704,0.8984375 Z M2.49218289,7.8046875 L2.49218289,17.8984375 L0.8984375,17.8984375 L0.8984375,7.8046875 L2.49218289,7.8046875 Z M11.1334704,2.4921875 C10.8944086,2.4921875 10.7961276,2.51981249 10.6739405,2.65687499 L10.6314406,2.70681249 L10.4306287,3.05743749 L10.2154731,3.42134375 C9.72557014,4.24391739 9.20056712,5.04507218 8.6419151,5.82259374 C8.03151062,6.66728124 7.43173111,7.39509375 6.84310782,7.97574999 C6.45157769,8.36196873 6.06748505,8.68390623 5.67967368,8.93359374 L5.67967368,16.3046875 L14.2997112,16.3046875 L16.304643,9.16149999 C16.304643,9.15459375 16.3014555,9.15034374 16.2924243,9.14025 C16.2998617,9.14874999 16.2711743,9.13653126 16.210612,9.13653126 L10.219723,9.13653126 L11.7428124,3.4229375 C11.8522496,3.01387499 11.6525002,2.62765625 11.3295011,2.52299999 C11.2649977,2.50704966 11.1992292,2.49673998 11.1329392,2.4921875 L11.1334704,2.4921875 Z" id="形状"></path>
        </g>
    </g>
</svg>