<?xml version="1.0" encoding="UTF-8"?>
<svg width="20px" height="20px" viewBox="0 0 20 20" version="1.1" xmlns="http://www.w3.org/2000/svg" xmlns:xlink="http://www.w3.org/1999/xlink">
    <title>平台</title>
    <g id="页面-1" stroke="none" stroke-width="1" fill="none" fill-rule="evenodd">
        <g id="phone-2" transform="translate(1.500000, 2.500000)" fill="#2F96A6" fill-rule="nonzero">
            <path d="M12,13.6015625 L12,15.1015625 L5.00000001,15.1015625 L5.00000001,13.6015625 L12,13.6015625 Z M15.5,0.1015625 C16.3284271,0.1015625 17,0.773135375 17,1.6015625 L17,11.1015625 C17,11.9299896 16.3284271,12.6015625 15.5,12.6015625 L1.5,12.6015625 C0.671572875,12.6015625 0,11.9299896 0,11.1015625 L0,1.6015625 C0,0.773135375 0.671572875,0.1015625 1.5,0.1015625 L15.5,0.1015625 Z M15.5,1.6015625 L1.5,1.6015625 L1.5,11.1015625 L15.5,11.1015625 L15.5,1.6015625 Z M12,5.60156251 L12,7.10156251 L5.00000001,7.10156251 L5.00000001,5.60156251 L12,5.60156251 Z" id="形状"></path>
        </g>
    </g>
</svg>