<?xml version="1.0" encoding="UTF-8"?>
<svg width="20px" height="20px" viewBox="0 0 20 20" version="1.1" xmlns="http://www.w3.org/2000/svg" xmlns:xlink="http://www.w3.org/1999/xlink">
    <title>时间</title>
    <g id="页面-1" stroke="none" stroke-width="1" fill="none" fill-rule="evenodd">
        <g id="clock-3" transform="translate(1.500000, 1.500000)" fill="#2F96A6" fill-rule="nonzero">
            <path d="M8.5,0 C13.1945,0 17,3.8055 17,8.5 C17,13.1945 13.1945,17 8.5,17 C3.8055,17 0,13.1945 0,8.5 C0,3.8055 3.8055,0 8.5,0 Z M8.5,1.5 C4.63400001,1.5 1.5,4.63399999 1.5,8.5 C1.5,12.366 4.63399999,15.5 8.5,15.5 C12.366,15.5 15.5,12.366 15.5,8.5 C15.5,4.63399999 12.366,1.5 8.5,1.5 Z M9.25,3.33950001 L9.25,8.05349999 L12.549,8.05349999 L12.549,9.55349999 L8.5,9.55349999 C8.08578644,9.55349999 7.75,9.21771355 7.75,8.80349999 L7.75,3.34 L9.25,3.34 L9.25,3.33950001 Z" id="形状"></path>
        </g>
    </g>
</svg>