<?xml version="1.0" encoding="UTF-8"?>
<svg width="20px" height="20px" viewBox="0 0 20 20" version="1.1" xmlns="http://www.w3.org/2000/svg" xmlns:xlink="http://www.w3.org/1999/xlink">
    <title>用户名</title>
    <g id="页面-1" stroke="none" stroke-width="1" fill="none" fill-rule="evenodd">
        <g id="bussiness-man-3" transform="translate(1.046875, 1.000000)" fill="#2F96A6" fill-rule="nonzero">
            <path d="M12.3930755,10.7264118 L16.5541722,15.3783529 C16.9753908,15.849308 17.0719319,16.5120767 16.8013868,17.0755164 C16.5308416,17.6389561 15.9427084,18 15.2953437,18 L2.61090626,18 C1.96354161,18 1.37540837,17.6389561 1.10486322,17.0755164 C0.834318062,16.5120767 0.930859204,15.849308 1.3520778,15.3783529 L5.51372712,10.7269412 C6.00388553,11.0128235 6.53604173,11.2388823 7.09914367,11.3955882 L2.61090626,16.4117647 L8.12422127,16.4117647 L8.12422127,13.2352941 L9.78202873,13.2352941 L9.78202873,16.4117647 L15.2953437,16.4117647 L10.8071063,11.3955882 C11.3641837,11.2403295 11.8974423,11.0153289 12.3930755,10.7264118 Z M8.953125,0 C12.0051485,0 14.4791499,2.37017646 14.4791499,5.29411766 C14.4791499,8.21805886 12.0051485,10.5882353 8.953125,10.5882353 C5.90110147,10.5882353 3.42710015,8.21805883 3.42710015,5.29411766 C3.42710015,2.37017648 5.90110147,0 8.953125,0 Z M8.953125,1.58823529 C6.81676752,1.58823529 5.08490759,3.24741534 5.08490759,5.29411765 C5.08490759,7.34081995 6.81676752,9 8.953125,9 C11.0894825,9 12.8213424,7.34081995 12.8213424,5.29411765 C12.8213424,3.24741534 11.0894825,1.58823529 8.953125,1.58823529 Z" id="形状"></path>
        </g>
    </g>
</svg>